<svg xmlns="http://www.w3.org/2000/svg" viewBox="0 0 64 64">
  <defs>
    <linearGradient id="bg" x1="8" y1="4" x2="56" y2="60" gradientUnits="userSpaceOnUse">
      <stop stop-color="#263443"/>
      <stop offset="1" stop-color="#121922"/>
    </linearGradient>
    <linearGradient id="bird" x1="10" y1="17" x2="52" y2="47" gradientUnits="userSpaceOnUse">
      <stop stop-color="#FF7A32"/>
      <stop offset="1" stop-color="#FD4F00"/>
    </linearGradient>
  </defs>
  <rect x="3" y="3" width="58" height="58" rx="17" fill="url(#bg)"/>
  <path
    fill="url(#bird)"
    d="M9.5 20.3c9.2-5.5 17.2-6.3 23.8-2.2 3 1.9 5.4 5 8.2 6.4 3.2 1.7 7 1.7 12.8-.2-3.2 4.7-8.1 7.5-14.2 7.7 4.3 2.8 8.2 4.1 13.4 3.8-5 5.4-10.9 8.1-17.5 7.8-4-.2-7.8-1.7-11.1-4.4-3.4-2.8-5.8-6.5-7.1-11.2-.9-3.2-3.2-5.8-8.3-7.7Z"
  />
  <path
    fill="#FFB084"
    d="M13.2 19.3c3.3-.7 6-.8 8.2-.4-1.5 1.9-3.1 2.8-4.9 2.6-1.3-.1-2.4-.8-3.3-2.2Z"
  />
  <path
    fill="#F7FAFC"
    d="M27.4 29c3.2 2.7 6.7 4.4 10.6 5-3.7 1.8-7.1 2.2-10.1 1.2-2.6-.8-4.9-2.7-6.7-5.5 2.2.8 4.2.6 6.2-.7Z"
    opacity=".94"
  />
  <rect x="3.75" y="3.75" width="56.5" height="56.5" rx="16.25" fill="none" stroke="#FFFFFF" stroke-opacity=".12" stroke-width="1.5"/>
</svg>
